<svg xmlns="http://www.w3.org/2000/svg" enable-background="new 0 0 64 64" viewBox="0 0 64 64" id="pear"><path fill="#099686" d="M37.999,16c-0.448,0-0.855-0.303-0.969-0.757c-1.141-4.563,0.201-9.888,3.263-12.95
				c0.391-0.391,1.023-0.391,1.414,0s0.391,1.023,0,1.414c-2.59,2.59-3.716,7.135-2.737,11.05c0.134,0.536-0.192,1.079-0.728,1.213
				C38.161,15.991,38.08,16,37.999,16z"></path><path fill="#099686" d="M38.579,5c-0.946,1.497-2.026,2.175-2.647,2.462c-2.481-1.932-5.608-3.018-8.23-2.648
				c-2.808,0.397-2.789,0.894-4.667,1.785c-1.878,0.893-4.16,0.091-4.16,0.091s4.066,6.935,9.207,7.113
				c5.14,0.178,7.892-4.121,7.892-4.121s-7.224,4.936-13.5-0.15c6.87,3.594,14.394-0.243,16.857-4.227
				c0.063-0.102,0.12-0.204,0.179-0.306H38.579z"></path><g><path fill="#FACB1B" d="M52.444,31c-3.333-3-3.333-8-3.333-8c0-6-2.223-8-5.556-9c-2.362-0.708-4.444,0-5.556,0
				s-3.194-0.708-5.556,0c-3.333,1-5.556,3-5.556,9c0,0,0,5-3.333,8C20.222,34,18,39.174,18,44c0,9.666,9.26,17,20,17
				s20-7.334,20-17C58,39.174,55.778,34,52.444,31z"></path><path fill="#F3B607" d="M52.444,31c-3.333-3-3.333-8-3.333-8c0-6-2.223-8-5.556-9c-1.734-0.521-3.314-0.277-4.474-0.11
				c0.158,0.036,0.313,0.063,0.474,0.11c3.333,1,5.556,3,5.556,9c0,0,0,5,3.333,8C51.778,34,54,39.174,54,44
				c0,9.06-8.136,16.071-18,16.915C36.66,60.971,37.327,61,38,61c10.74,0,20-7.334,20-17C58,39.174,55.778,34,52.444,31z"></path></g><g><path fill="#F8E1C2" d="M22,61c-9.218,0-16.718-7.108-16.718-15.844c0-4.496,1.829-9.229,4.66-12.058
			c2.286-2.287,2.326-6.241,2.326-6.281c0-4.992,1.51-7.625,5.05-8.805c0.659-0.22,1.339-0.326,2.079-0.326
			c0.716,0,1.349,0.101,1.857,0.182c0.298,0.048,0.581,0.093,0.746,0.093s0.448-0.045,0.746-0.093
			c0.508-0.081,1.141-0.182,1.857-0.182c0.74,0,1.42,0.106,2.079,0.326c3.54,1.18,5.05,3.813,5.05,8.807
			c0,0.038,0.041,3.992,2.326,6.279c2.831,2.83,4.66,7.563,4.66,12.058C38.718,53.892,31.218,61,22,61z"></path><path fill="#099686" d="M23.526,23.234c-0.512,0-0.948-0.39-0.995-0.91c-0.365-4.02-2.923-7.94-6.222-9.534
				c-0.497-0.24-0.706-0.838-0.465-1.335s0.837-0.706,1.335-0.465c3.899,1.884,6.918,6.47,7.344,11.154
				c0.05,0.55-0.356,1.036-0.906,1.086C23.586,23.232,23.556,23.234,23.526,23.234z"></path><path fill="#F3B607" d="M37.058,33.098c-2.286-2.287-2.326-6.241-2.326-6.281c0-4.992-1.51-7.625-5.05-8.805
				c-0.659-0.22-1.339-0.326-2.079-0.326c-0.716,0-1.349,0.101-1.857,0.182C25.448,17.916,25.166,17.96,25,17.96
				c-0.166,0-0.448-0.045-0.746-0.093c-0.508-0.081-1.141-0.182-1.857-0.182c-0.74,0-1.42,0.106-2.079,0.326
				c-3.54,1.18-5.05,3.813-5.05,8.807c0,0.038-0.041,3.992-2.326,6.279c-2.831,2.83-4.66,7.563-4.66,12.058
				C8.282,53.892,15.782,61,25,61s16.718-7.108,16.718-15.844C41.718,40.66,39.889,35.927,37.058,33.098z"></path><path fill="#FACB1B" d="M24.603,18.686c0.55,0,1.144,0.069,1.763,0.275c2.62,0.873,4.366,2.619,4.366,7.858
				c0,0,0,4.366,2.619,6.986c2.62,2.619,4.367,7.137,4.367,11.351C37.718,53.596,30.44,60,22,60S6.282,53.596,6.282,45.156
				c0-4.214,1.747-8.732,4.367-11.351c2.619-2.62,2.619-6.986,2.619-6.986c0-5.239,1.747-6.985,4.366-7.858
				c0.619-0.206,1.213-0.275,1.763-0.275c1.1,0,2.021,0.275,2.603,0.275S23.503,18.686,24.603,18.686L24.603,18.686z M24.603,16.686
				c-0.795,0-1.5,0.112-2.015,0.195c-0.208,0.033-0.494,0.079-0.589,0.08c-0.093-0.001-0.379-0.047-0.587-0.08
				c-0.515-0.083-1.22-0.195-2.015-0.195c-0.849,0-1.633,0.124-2.395,0.377c-3.965,1.322-5.734,4.331-5.734,9.756
				c0,0.028-0.049,3.587-2.034,5.572c-3.008,3.007-4.952,8.018-4.952,12.765C4.282,54.444,12.23,62,22,62
				s17.718-7.556,17.718-16.844c0-4.747-1.944-9.758-4.953-12.766c-1.984-1.984-2.033-5.543-2.033-5.579
				c0-5.418-1.769-8.427-5.734-9.749C26.236,16.809,25.453,16.686,24.603,16.686L24.603,16.686z"></path><path fill="#F8E1C2" d="M22,59.5c-8.391,0-15.218-6.435-15.218-14.344c0-4.055,1.696-8.474,4.22-10.998
					c2.734-2.735,2.766-7.153,2.766-7.339c0-5.015,1.609-6.579,4.024-7.384c0.503-0.167,1.028-0.249,1.604-0.249
					c0.597,0,1.141,0.087,1.62,0.164c0.375,0.06,0.698,0.111,0.983,0.111s0.608-0.052,0.983-0.111
					c0.479-0.077,1.023-0.164,1.62-0.164c0.577,0,1.102,0.082,1.604,0.249c2.416,0.805,4.024,2.369,4.024,7.384
					c0,0.187,0.031,4.604,2.766,7.339c2.524,2.523,4.22,6.943,4.22,10.998C37.218,53.065,30.391,59.5,22,59.5z"></path><path fill="#FCF1E2" d="M24.603,19.686c0.522,0,0.995,0.073,1.446,0.224c1.863,0.621,3.683,1.666,3.683,6.91
							c0,0.195,0.033,4.813,2.912,7.693c2.437,2.436,4.074,6.713,4.074,10.644C36.718,52.79,30.115,59,22,59
							S7.282,52.79,7.282,45.156c0-3.931,1.637-8.208,4.074-10.644c2.879-2.88,2.912-7.498,2.912-7.693
							c0-5.244,1.819-6.289,3.683-6.91c0.451-0.15,0.924-0.224,1.446-0.224c0.557,0,1.08,0.083,1.542,0.157
							c0.396,0.063,0.737,0.118,1.062,0.118s0.666-0.055,1.062-0.118C23.523,19.769,24.046,19.686,24.603,19.686L24.603,19.686z
							 M24.603,18.686c-1.1,0-2.021,0.275-2.603,0.275s-1.503-0.275-2.603-0.275c-0.55,0-1.144,0.069-1.763,0.275
							c-2.62,0.873-4.366,2.619-4.366,7.858c0,0,0,4.366-2.619,6.986c-2.62,2.619-4.367,7.137-4.367,11.351
							C6.282,53.596,13.56,60,22,60s15.718-6.404,15.718-14.844c0-4.214-1.747-8.732-4.367-11.351
							c-2.619-2.62-2.619-6.986-2.619-6.986c0-5.239-1.747-6.985-4.366-7.858C25.747,18.754,25.153,18.686,24.603,18.686
							L24.603,18.686z"></path><path fill="#FCF1E2" d="M24,51h-4c1-8,2-19,1-31h2C22,31,23,43,24,51z"></path><path fill="#FCF1E2" d="M22,52c-9,0-4-12,0-14C26,40,31,52,22,52z"></path><g><path fill="#F4D0A1" d="M24.067,50c2.145,0,1.145-3-0.855-4C23.212,47,22.212,50,24.067,50z"></path><path fill="#692E19" d="M24.067,49c2.145,0,1.145-3-0.855-4C23.212,46,22.212,49,24.067,49z"></path><g><path fill="#F4D0A1" d="M20.145,50C18,50,19,47,21,46C21,47,22,50,20.145,50z"></path><path fill="#692E19" d="M20.145,49C18,49,19,46,21,45C21,46,22,49,20.145,49z"></path></g></g></g></svg>