<svg version="1.1" xmlns="http://www.w3.org/2000/svg" viewBox="0 0 2000 2000">
<path d="M0 0 C1.91745089 -0.00143509 1.91745089 -0.00143509 3.87363815 -0.00289917 C98.40017316 0.06785443 175.31687348 26.66174214 256.8515625 73.05908203 C258.18643141 73.81843477 258.18643141 73.81843477 259.54826736 74.59312797 C277.39174938 84.79926656 294.593105 95.90807894 312 106.875 C312 151.755 312 196.635 312 242.875 C330.48 238.255 348.96 233.635 368 228.875 C390.58403693 223.32413685 413.17866985 217.81851894 435.77934265 212.33604431 C444.4163929 210.23978038 453.04880927 208.12688953 461.67382812 205.98158264 C466.0054076 204.90520505 470.33952053 203.83931625 474.67425537 202.77572632 C476.56918042 202.30779143 478.46283526 201.834676 480.3550415 201.35586548 C482.88069849 200.71713019 485.41016372 200.09662786 487.94140625 199.48046875 C488.64055649 199.29825775 489.33970673 199.11604675 490.06004333 198.92831421 C499.5448572 196.67468794 506.48810513 199.10054287 514.9140625 203.3984375 C515.83816925 203.85571228 516.762276 204.31298706 517.71438599 204.78411865 C520.69099267 206.26026181 523.65780607 207.75504089 526.625 209.25 C528.67666627 210.27086226 530.7290782 211.29022728 532.78222656 212.30810547 C536.77381597 214.28801503 540.76257312 216.27343677 544.74902344 218.26367188 C550.71958084 221.23952994 556.72156041 224.14304627 562.75 227 C564.4362128 227.80205205 566.12241099 228.60413481 567.80859375 229.40625 C568.62827637 229.79554688 569.44795898 230.18484375 570.29248047 230.5859375 C575.80549298 233.21070811 581.3082445 235.85692911 586.8125 238.5 C587.90079102 239.02223145 588.98908203 239.54446289 590.11035156 240.08251953 C597.74473916 243.74736958 597.74473916 243.74736958 600 244.875 C600 525.375 600 805.875 600 1094.875 C499.78469758 1144.98265121 499.78469758 1144.98265121 484.8449707 1141.29052734 C484.19438659 1141.13178729 483.54380247 1140.97304724 482.87350368 1140.80949688 C480.7226343 1140.28303772 478.57428343 1139.74696798 476.42578125 1139.2109375 C474.86052866 1138.82597646 473.29511428 1138.44167277 471.72955322 1138.05796814 C468.3577328 1137.23028387 464.98696591 1136.39848231 461.61697388 1135.56338501 C456.25076156 1134.23373735 450.88236353 1132.91308462 445.51342773 1131.59448242 C444.13799348 1131.25665253 444.13799348 1131.25665253 442.73477268 1130.9119978 C440.84953475 1130.44896492 438.96428998 1129.98595984 437.07903862 1129.52298164 C434.1707028 1128.80844053 431.26258787 1128.09300594 428.35450745 1127.37742615 C413.42680469 1123.70595902 398.48916811 1120.07643764 383.546875 1116.46484375 C381.91135964 1116.06947292 381.91135964 1116.06947292 380.24280357 1115.66611481 C370.5467971 1113.32245407 360.85025218 1110.98102497 351.1534729 1108.64056396 C346.1063996 1107.422306 341.05961782 1106.20284691 336.01302338 1104.98260689 C333.25210558 1104.31544885 330.49083595 1103.6497613 327.72955322 1102.9841156 C326.07301883 1102.58364963 324.41650319 1102.18310609 322.76000977 1101.7824707 C322.01112142 1101.60237646 321.26223307 1101.42228222 320.49065113 1101.23673058 C317.61688189 1100.54029049 314.80690639 1099.81063546 312 1098.875 C312 1144.415 312 1189.955 312 1236.875 C272.04478417 1262.04811087 272.04478417 1262.04811087 256.8515625 1270.69091797 C255.89207073 1271.23691705 254.93257896 1271.78291614 253.94401169 1272.34546065 C171.89292404 1318.85016115 94.83607425 1343.82097872 0 1343.75 C-1.91745089 1343.75143509 -1.91745089 1343.75143509 -3.87363815 1343.75289917 C-98.40017316 1343.68214557 -175.31687348 1317.08825786 -256.8515625 1270.69091797 C-257.74147511 1270.18468281 -258.63138771 1269.67844765 -259.54826736 1269.15687203 C-277.39174938 1258.95073344 -294.593105 1247.84192106 -312 1236.875 C-312 1191.335 -312 1145.795 -312 1098.875 C-327.84 1102.835 -343.68 1106.795 -360 1110.875 C-373.53878587 1114.19973388 -387.07900165 1117.51744815 -400.625 1120.8125 C-402.37911368 1121.23936354 -404.13322332 1121.66624366 -405.8873291 1122.09313965 C-412.9521858 1123.8123486 -420.01714531 1125.53113244 -427.0826416 1127.24771118 C-435.71804191 1129.34583082 -444.35237456 1131.44814333 -452.98404503 1133.56155872 C-458.74582123 1134.97215152 -464.5091153 1136.37645157 -470.27313232 1137.77786255 C-472.56899689 1138.33724905 -474.86429865 1138.89895112 -477.15899658 1139.46310425 C-480.26595312 1140.22653529 -483.3748344 1140.98155028 -486.484375 1141.734375 C-487.3740799 1141.95519241 -488.26378479 1142.17600983 -489.18045044 1142.40351868 C-490.40935501 1142.69829353 -490.40935501 1142.69829353 -491.66308594 1142.99902344 C-492.71106354 1143.2549527 -492.71106354 1143.2549527 -493.7802124 1143.51605225 C-532.22325088 1149.73243183 -565.16885782 1112.29057109 -600 1094.875 C-600 814.375 -600 533.875 -600 244.875 C-574.82178899 232.2858945 -574.82178899 232.2858945 -566.6875 228.4375 C-564.75768286 227.51980383 -562.82800021 226.60182478 -560.8984375 225.68359375 C-559.4458252 224.99305908 -559.4458252 224.99305908 -557.96386719 224.28857422 C-553.93894173 222.36894338 -549.92347082 220.42995067 -545.90795898 218.49072266 C-542.80074689 216.9943399 -539.68794517 215.51011666 -536.57421875 214.02734375 C-532.52182415 212.09566743 -528.48896009 210.1308066 -524.47117615 208.12860107 C-521.97208352 206.8888144 -519.46292494 205.67035964 -516.95175171 204.45526123 C-515.17631272 203.5875773 -513.41370075 202.69379942 -511.65161133 201.79931641 C-510.55228271 201.27128418 -509.4529541 200.74325195 -508.3203125 200.19921875 C-507.36398926 199.72572998 -506.40766602 199.25224121 -505.42236328 198.7644043 C-497.08885492 196.59869086 -488.0012922 199.36789038 -479.83959961 201.4284668 C-478.78023697 201.68897827 -477.72087433 201.94948975 -476.62940979 202.21789551 C-473.1351422 203.07913064 -469.64380781 203.95169409 -466.15234375 204.82421875 C-463.66160807 205.44018779 -461.1706828 206.05539065 -458.67958069 206.6698761 C-452.76228313 208.13125892 -446.84674536 209.59956459 -440.93207222 211.07152826 C-429.9385059 213.80706915 -418.9405763 216.52502172 -407.9432869 219.24554825 C-404.09196648 220.19869341 -400.24096706 221.15312782 -396.38998413 222.1076355 C-375.19333155 227.3568037 -353.97074567 232.49508889 -332.73606873 237.58805847 C-331.56201162 237.87007048 -330.38795452 238.15208248 -329.17831993 238.4426403 C-326.98641504 238.96899073 -324.79423674 239.49420441 -322.60173988 240.01808357 C-321.63819273 240.2494898 -320.67464558 240.48089603 -319.68190002 240.71931458 C-318.84501428 240.91961682 -318.00812853 241.11991907 -317.14588261 241.32629108 C-315.41042599 241.77005279 -313.69937068 242.30854311 -312 242.875 C-312 197.995 -312 153.115 -312 106.875 C-272.04478417 81.70188913 -272.04478417 81.70188913 -256.8515625 73.05908203 C-255.89207073 72.51308295 -254.93257896 71.96708386 -253.94401169 71.40453935 C-171.89292404 24.89983885 -94.83607425 -0.07097872 0 0 Z " fill="#2E73B8" transform="translate(1000,328.125)"/>
<path d="M0 0 C6.75 2.25 6.75 2.25 9.6431179 3.69851112 C10.63290471 4.19041795 10.63290471 4.19041795 11.6426872 4.69226229 C12.34892654 5.0482948 13.05516587 5.40432731 13.7828064 5.77114868 C14.54747368 6.1526279 15.31214097 6.53410712 16.09998 6.92714632 C18.65369208 8.20235937 21.20450853 9.4832578 23.75537109 10.76416016 C25.58857325 11.68104338 27.42195176 12.59757408 29.25549316 13.51377869 C34.22785134 15.9996709 39.19772768 18.49048816 44.16717482 20.98219347 C49.36275486 23.5862352 54.56060112 26.1857454 59.75820923 28.78573608 C69.59817196 33.7088254 79.43608829 38.63598974 89.27327693 43.56461942 C102.56787936 50.22518852 115.8656319 56.87946228 129.16320992 63.53408813 C150.11138645 74.01757905 171.05534004 84.50947836 192 95 C192 139.88 192 184.76 192 231 C210.48 226.38 228.96 221.76 248 217 C270.58403693 211.44913685 293.17866985 205.94351894 315.77934265 200.46104431 C324.4163929 198.36478038 333.04880927 196.25188953 341.67382812 194.10658264 C346.0054076 193.03020505 350.33952053 191.96431625 354.67425537 190.90072632 C356.56918042 190.43279143 358.46283526 189.959676 360.3550415 189.48086548 C362.88069849 188.84213019 365.41016372 188.22162786 367.94140625 187.60546875 C368.64055649 187.42325775 369.33970673 187.24104675 370.06004333 187.05331421 C379.5448572 184.79968794 386.48810513 187.22554287 394.9140625 191.5234375 C396.30022263 192.20934967 396.30022263 192.20934967 397.71438599 192.90911865 C400.69099267 194.38526181 403.65780607 195.88004089 406.625 197.375 C408.67666627 198.39586226 410.7290782 199.41522728 412.78222656 200.43310547 C416.77381597 202.41301503 420.76257312 204.39843677 424.74902344 206.38867188 C430.71958084 209.36452994 436.72156041 212.26804627 442.75 215.125 C444.4362128 215.92705205 446.12241099 216.72913481 447.80859375 217.53125 C448.62827637 217.92054688 449.44795898 218.30984375 450.29248047 218.7109375 C455.80549298 221.33570811 461.3082445 223.98192911 466.8125 226.625 C467.90079102 227.14723145 468.98908203 227.66946289 470.11035156 228.20751953 C477.74473916 231.87236958 477.74473916 231.87236958 480 233 C480 513.5 480 794 480 1083 C379.78469758 1133.10765121 379.78469758 1133.10765121 364.8449707 1129.41552734 C364.19438659 1129.25678729 363.54380247 1129.09804724 362.87350368 1128.93449688 C360.7226343 1128.40803772 358.57428343 1127.87196798 356.42578125 1127.3359375 C354.86052866 1126.95097646 353.29511428 1126.56667277 351.72955322 1126.18296814 C348.3577328 1125.35528387 344.98696591 1124.52348231 341.61697388 1123.68838501 C336.25076156 1122.35873735 330.88236353 1121.03808462 325.51342773 1119.71948242 C324.13799348 1119.38165253 324.13799348 1119.38165253 322.73477268 1119.0369978 C320.84953475 1118.57396492 318.96428998 1118.11095984 317.07903862 1117.64798164 C314.1707028 1116.93344053 311.26258787 1116.21800594 308.35450745 1115.50242615 C293.42680469 1111.83095902 278.48916811 1108.20143764 263.546875 1104.58984375 C261.91135964 1104.19447292 261.91135964 1104.19447292 260.24280357 1103.79111481 C250.5467971 1101.44745407 240.85025218 1099.10602497 231.1534729 1096.76556396 C226.1063996 1095.547306 221.05961782 1094.32784691 216.01302338 1093.10760689 C213.25210558 1092.44044885 210.49083595 1091.7747613 207.72955322 1091.1091156 C206.07301883 1090.70864963 204.41650319 1090.30810609 202.76000977 1089.9074707 C201.63667724 1089.63732934 201.63667724 1089.63732934 200.49065113 1089.36173058 C197.61688189 1088.66529049 194.80690639 1087.93563546 192 1087 C192 1132.54 192 1178.08 192 1225 C144.43346339 1248.82357134 144.43346339 1248.82357134 124.55859375 1258.76953125 C110.81376796 1265.64788702 97.06936948 1272.52708763 83.32763672 1279.41162109 C73.32139627 1284.42468848 63.31376687 1289.43497007 53.30443847 1294.44186926 C48.00148743 1297.09465183 42.69925682 1299.74885264 37.39868546 1302.40638733 C32.41500406 1304.90498874 27.42948163 1307.39987604 22.44248962 1309.89186287 C20.60753627 1310.80961585 18.77327391 1311.72875184 16.93973923 1312.64933586 C14.4461934 1313.9010468 11.95026319 1315.14786626 9.4536438 1316.39343262 C8.72018931 1316.76307271 7.98673481 1317.13271279 7.23105443 1317.5135541 C2.22824242 1320 2.22824242 1320 0 1320 C0 884.4 0 448.8 0 0 Z " fill="#1F5A99" transform="translate(1120,340)"/>
<path d="M0 0 C1.05936264 0.26051147 2.11872528 0.52102295 3.21018982 0.78942871 C6.70445741 1.65066385 10.1957918 2.52322729 13.68725586 3.39575195 C16.17799154 4.01172099 18.66891681 4.62692386 21.16001892 5.2414093 C27.07731648 6.70279212 32.99285425 8.1710978 38.90752739 9.64306146 C49.9010937 12.37860235 60.89902331 15.09655493 71.89631271 17.81708145 C75.74763313 18.77022661 79.59863255 19.72466102 83.44961548 20.6791687 C104.64626806 25.9283369 125.86885394 31.0666221 147.10353088 36.15959167 C148.27758799 36.44160368 149.45164509 36.72361568 150.66127968 37.01417351 C152.85318457 37.54052394 155.04536287 38.06573761 157.23785973 38.58961678 C158.20140688 38.82102301 159.16495403 39.05242924 160.15769958 39.29084778 C160.99458533 39.49115003 161.83147108 39.69145227 162.693717 39.89782429 C164.42917362 40.34158599 166.14022893 40.88007631 167.83959961 41.4465332 C167.83959961 323.9265332 167.83959961 606.4065332 167.83959961 897.4465332 C138.31307303 904.82816485 108.78675611 912.19063286 79.21459961 919.3840332 C77.46048593 919.81089674 75.70637629 920.23777686 73.95227051 920.66467285 C66.88741381 922.38388181 59.8224543 924.10266564 52.75695801 925.81924438 C44.1215577 927.91736402 35.48722505 930.01967653 26.85555458 932.13309193 C21.09377838 933.54368473 15.33048431 934.94798477 9.56646729 936.34939575 C7.27060272 936.90878226 4.97530096 937.47048432 2.68060303 938.03463745 C-0.42635351 938.79806849 -3.53523479 939.55308349 -6.64477539 940.3059082 C-7.53448029 940.52672562 -8.42418518 940.74754303 -9.34085083 940.97505188 C-10.16012054 941.17156845 -10.97939026 941.36808502 -11.82348633 941.57055664 C-12.87146393 941.8264859 -12.87146393 941.8264859 -13.94061279 942.08758545 C-52.38365127 948.30396504 -85.32925821 910.8621043 -120.16040039 893.4465332 C-120.16040039 612.9465332 -120.16040039 332.4465332 -120.16040039 43.4465332 C-94.98218938 30.8574277 -94.98218938 30.8574277 -86.84790039 27.0090332 C-84.91808325 26.09133703 -82.9884006 25.17335799 -81.05883789 24.25512695 C-80.09042969 23.79477051 -79.12202148 23.33441406 -78.12426758 22.86010742 C-74.09934212 20.94047658 -70.08387121 19.00148387 -66.06835938 17.06225586 C-62.96114728 15.5658731 -59.84834556 14.08164986 -56.73461914 12.59887695 C-52.68222454 10.66720063 -48.64936048 8.70233981 -44.63157654 6.70013428 C-42.13248391 5.4603476 -39.62332533 4.24189285 -37.1121521 3.02679443 C-35.33671311 2.15911051 -33.57410114 1.26533262 -31.81201172 0.37084961 C-30.71268311 -0.15718262 -29.61335449 -0.68521484 -28.48071289 -1.22924805 C-27.52438965 -1.70273682 -26.56806641 -2.17622559 -25.58276367 -2.6640625 C-17.24925531 -4.82977594 -8.1616926 -2.06057642 0 0 Z " fill="#5194CF" transform="translate(520.160400390625,529.553466796875)"/>
<path d="M0 0 C67.74142012 22.58047337 128.13277662 63.06638831 192 95 C192 467.9 192 840.8 192 1225 C2 1320 2 1320 0 1320 C0 884.4 0 448.8 0 0 Z " fill="#5193CE" transform="translate(1120,340)"/>
<path d="M0 0 C0 435.6 0 871.2 0 1320 C-67.74142012 1297.41952663 -128.13277662 1256.93361169 -192 1225 C-192 852.1 -192 479.2 -192 95 C-2 0 -2 0 0 0 Z " fill="#205A98" transform="translate(880,340)"/>
<path d="M0 0 C10.12437338 3.37479113 10.12437338 3.37479113 13.42041016 5.00195312 C14.54058029 5.54958313 14.54058029 5.54958313 15.68338013 6.10827637 C16.46075531 6.49535767 17.23813049 6.88243896 18.0390625 7.28125 C18.8742038 7.69121216 19.70934509 8.10117432 20.5697937 8.52355957 C23.25736786 9.84401642 25.94111848 11.17205648 28.625 12.5 C31.41535622 13.87256285 34.20671918 15.24306382 36.99810791 16.61352539 C38.82993519 17.51309175 40.66144055 18.41331395 42.49261475 19.31420898 C49.14205227 22.58492146 55.80860821 25.81583309 62.5 29 C63.35762939 29.40847168 64.21525879 29.81694336 65.09887695 30.23779297 C66.80845529 31.05172317 68.51817163 31.86536359 70.22802734 32.67871094 C75.76152939 35.31631117 81.28648484 37.97176003 86.8125 40.625 C87.90046875 41.14707031 88.9884375 41.66914062 90.109375 42.20703125 C91.61177734 42.92826172 91.61177734 42.92826172 93.14453125 43.6640625 C94.03503174 44.09154785 94.92553223 44.5190332 95.84301758 44.95947266 C97.23330273 45.63014558 98.61936392 46.30968196 100 47 C100 327.5 100 608 100 897 C2 946 2 946 0 946 C0 633.82 0 321.64 0 0 Z " fill="#5194CE" transform="translate(1500,526)"/>
<path d="M0 0 C0 312.18 0 624.36 0 946 C-35.2150536 934.2616488 -66.79892907 913.60053547 -100 897 C-100 616.5 -100 336 -100 47 C-74.82178899 34.4108945 -74.82178899 34.4108945 -66.6875 30.5625 C-64.75768286 29.64480383 -62.82800021 28.72682478 -60.8984375 27.80859375 C-59.9300293 27.3482373 -58.96162109 26.88788086 -57.96386719 26.41357422 C-54.96419112 24.98292147 -51.96963395 23.54207141 -48.9765625 22.09765625 C-38.16593151 16.88142796 -27.33382692 11.71275439 -16.45736694 6.63519287 C-15.19996075 6.04779173 -13.94313836 5.45913917 -12.68692017 4.86920166 C-10.94021969 4.04957023 -9.19087259 3.23558609 -7.44140625 2.421875 C-6.43795166 1.95362305 -5.43449707 1.48537109 -4.40063477 1.00292969 C-2 0 -2 0 0 0 Z " fill="#1F5A99" transform="translate(500,526)"/>
</svg>
