<?xml version="1.0" standalone="no"?>
<!DOCTYPE svg PUBLIC "-//W3C//DTD SVG 20010904//EN"
 "http://www.w3.org/TR/2001/REC-SVG-20010904/DTD/svg10.dtd">
<svg version="1.0" xmlns="http://www.w3.org/2000/svg"
 viewBox="0 0 900.000000 512.000000"
 preserveAspectRatio="xMidYMid meet">

<g transform="translate(0.000000,512.000000) scale(0.100000,-0.100000)"
fill="#231F20" stroke="none">
<path d="M3662 5106 c-245 -47 -452 -244 -517 -491 -20 -78 -20 -241 0 -320
46 -182 181 -352 343 -433 46 -23 98 -44 117 -48 l35 -6 0 -192 0 -192 -80
-23 c-162 -47 -277 -118 -396 -244 -106 -111 -183 -255 -215 -402 -21 -95 -16
-304 10 -400 44 -165 145 -323 279 -437 82 -71 241 -153 340 -175 l72 -17 0
-201 0 -201 -68 -22 c-270 -87 -454 -340 -454 -626 0 -191 58 -332 192 -467
69 -70 101 -94 170 -128 125 -60 191 -74 330 -69 83 4 133 11 180 27 202 69
360 230 427 436 21 66 26 99 26 190 0 132 -17 206 -76 320 -76 147 -248 287
-400 325 l-47 12 0 200 c0 150 3 199 13 202 213 60 334 124 450 237 l69 68
151 -107 c141 -101 152 -110 150 -138 -15 -176 -15 -236 2 -308 48 -217 218
-410 424 -482 355 -123 729 58 855 415 27 78 30 97 30 211 0 114 -3 133 -30
211 -162 459 -731 605 -1080 277 l-52 -49 -157 112 c-120 85 -155 115 -150
128 31 78 40 145 39 281 -1 116 -5 159 -22 215 -11 38 -20 70 -19 71 1 0 71
49 155 107 l153 107 59 -52 c193 -175 492 -219 726 -108 174 83 303 236 360
426 28 91 25 267 -5 364 -101 329 -432 532 -761 466 -246 -49 -432 -218 -516
-466 -21 -60 -27 -256 -11 -337 l8 -41 -153 -109 -153 -110 -62 64 c-108 109
-273 202 -416 234 l-57 12 2 190 3 189 55 17 c104 32 181 81 271 171 135 135
193 275 193 465 -1 120 -20 200 -75 306 -134 258 -429 400 -717 345z m190
-337 c71 -15 116 -39 165 -89 69 -68 88 -119 88 -230 0 -80 -4 -102 -23 -138
-35 -66 -88 -119 -150 -149 -49 -24 -69 -28 -142 -28 -103 0 -160 24 -232 97
-65 67 -91 139 -86 238 6 91 36 157 101 217 54 49 71 59 139 77 66 18 75 19
140 5z m1705 -960 c146 -70 214 -239 159 -399 -26 -76 -110 -159 -191 -189
-120 -45 -281 -5 -354 88 -61 77 -76 119 -76 211 0 99 20 152 81 220 96 106
246 134 381 69z m-1617 -810 c218 -75 344 -313 286 -539 -56 -219 -284 -369
-503 -330 -266 46 -434 300 -368 555 37 142 146 263 279 312 91 33 212 34 306
2z m1612 -1087 c64 -32 126 -96 156 -162 37 -79 36 -186 -1 -263 -34 -68 -92
-128 -155 -159 -39 -19 -63 -23 -142 -23 -88 0 -99 2 -150 31 -214 121 -228
416 -26 552 65 43 97 52 191 49 60 -2 92 -8 127 -25z m-1648 -938 c83 -29 161
-109 192 -195 8 -24 15 -75 15 -113 0 -130 -85 -250 -210 -297 -118 -44 -267
-7 -350 88 -59 67 -84 140 -79 233 13 220 222 357 432 284z"/>
</g>
</svg>
