<?xml version="1.0" standalone="no"?>
<!DOCTYPE svg PUBLIC "-//W3C//DTD SVG 20010904//EN"
 "http://www.w3.org/TR/2001/REC-SVG-20010904/DTD/svg10.dtd">
<svg version="1.0" xmlns="http://www.w3.org/2000/svg"
 viewBox="0 0 226.000000 223.000000"
 preserveAspectRatio="xMidYMid meet">

<g transform="translate(0.000000,223.000000) scale(0.100000,-0.100000)"
fill="#00758F" stroke="none">
<path d="M83 2219 c-35 -10 -66 -48 -77 -92 -12 -48 12 -101 94 -213 69 -95
84 -124 116 -219 46 -139 94 -241 139 -295 25 -30 33 -46 26 -58 -4 -10 -19
-60 -32 -112 -19 -74 -24 -121 -23 -210 0 -162 36 -273 112 -352 40 -42 76
-54 115 -39 34 13 52 54 69 156 l14 80 43 -82 c46 -88 114 -164 251 -283 l75
-65 -55 61 c-96 105 -204 282 -276 453 -21 49 -42 87 -46 85 -4 -3 -21 -25
-38 -49 -32 -47 -55 -123 -65 -222 -4 -35 -10 -63 -14 -63 -21 0 -56 39 -76
84 -64 145 -67 314 -10 478 33 95 32 120 -8 165 -51 58 -74 105 -122 243 -52
153 -67 184 -136 275 -73 97 -89 126 -89 157 0 34 31 52 75 45 48 -8 177 -72
225 -112 33 -28 51 -35 83 -35 99 -1 172 -19 272 -69 260 -130 496 -382 610
-653 64 -153 172 -384 199 -426 32 -51 38 -55 146 -92 52 -18 111 -41 130 -51
57 -29 263 -173 268 -186 3 -10 -13 -13 -58 -13 -73 0 -193 -24 -255 -50 -43
-19 -44 -19 -32 -51 28 -75 147 -175 287 -241 41 -19 109 -60 151 -90 97 -70
92 -48 -14 63 -55 57 -116 108 -184 152 -86 55 -135 101 -121 111 3 2 87 20
242 50 43 9 81 18 84 21 7 7 -54 82 -97 120 -78 69 -221 167 -295 202 -174 83
-154 64 -227 210 -37 73 -93 195 -125 270 -102 242 -258 442 -465 598 -185
139 -286 184 -451 200 -54 5 -75 12 -105 37 -52 41 -141 85 -210 103 -64 17
-74 17 -120 4z"/>
<path d="M471 1841 c-11 -7 -8 -17 17 -47 16 -22 33 -49 37 -61 8 -28 21 -29
35 -4 17 33 11 61 -19 92 -31 30 -46 35 -70 20z"/>
</g>
</svg>
