<?xml version="1.0" encoding="UTF-8"?>
<svg version="1.1" xmlns="http://www.w3.org/2000/svg" viewBox="0 0 320 320">
<path d="M0 0 C1.26145088 -0.01248528 1.26145088 -0.01248528 2.54838562 -0.02522278 C5.33259694 -0.04934772 8.1165741 -0.05809786 10.90087891 -0.06469727 C12.83517529 -0.07366162 14.76947094 -0.08278343 16.70376587 -0.09205627 C20.76069831 -0.10855555 24.81754812 -0.11624811 28.87451172 -0.11914062 C34.07235542 -0.12452573 39.26942243 -0.16220703 44.46704674 -0.20788479 C48.46307204 -0.2376312 52.45890976 -0.24486365 56.45503616 -0.24586678 C58.37120751 -0.2500738 60.28737917 -0.26252742 62.20344162 -0.28338432 C64.88490612 -0.31024922 67.56456327 -0.30548843 70.24609375 -0.29296875 C71.03691849 -0.30780304 71.82774323 -0.32263733 72.64253235 -0.33792114 C76.75870536 -0.28321039 78.51347592 0.10720454 81.72158813 2.78135681 C82.7268605 4.03125145 82.7268605 4.03125145 83.75244141 5.30639648 C84.08244141 5.63639648 84.41244141 5.96639648 84.75244141 6.30639648 C84.85363997 7.77678444 84.88534361 9.25201147 84.8894558 10.72587204 C84.89453034 11.68619677 84.89960488 12.64652151 84.9048332 13.63594699 C84.90533095 14.70352528 84.90582871 15.77110357 84.90634155 16.87103271 C84.91291493 18.55761329 84.91291493 18.55761329 84.91962111 20.27826619 C84.93306559 24.07768363 84.9392006 27.87707785 84.9453125 31.67651367 C84.95267872 34.38772872 84.96147212 37.09893884 84.97009277 39.81015015 C84.99464518 47.96999791 85.00924865 56.12985183 85.02215284 64.28972518 C85.02586289 66.59332531 85.02983628 68.89692482 85.03390551 71.20052433 C85.05914154 85.49609719 85.08120145 99.79167097 85.09363365 114.0872612 C85.09656351 117.40054071 85.09952514 120.71382018 85.10253906 124.02709961 C85.10328511 124.85063223 85.10403116 125.67416486 85.10479982 126.52265301 C85.11745593 139.86618737 85.15068049 153.20958854 85.1923409 166.55306062 C85.2347343 180.24321757 85.25832573 193.93330629 85.26355422 207.62352872 C85.26697145 215.31385558 85.27876289 223.00397439 85.31165695 230.69423676 C85.33962322 237.24331142 85.35067205 243.79213542 85.33946149 250.34126517 C85.33426556 253.68389985 85.33993105 257.02558301 85.36192703 260.36821365 C85.38447091 263.99052749 85.37639071 267.61150702 85.36044312 271.23382568 C85.38126625 272.82180879 85.38126625 272.82180879 85.40251005 274.44187236 C85.32499825 281.55929919 85.32499825 281.55929919 82.4019413 285.37343216 C77.55355168 288.91061448 74.67422863 289.59747406 68.79458618 289.57382202 C67.56484198 289.58061869 67.56484198 289.58061869 66.31025445 289.58755267 C63.55345926 289.60024857 60.79686032 289.59857297 58.04003906 289.59692383 C56.06743616 289.60290584 54.09483561 289.60971063 52.12223816 289.61727905 C46.75653626 289.63497956 41.39089811 289.63963614 36.02516985 289.64091063 C31.54940755 289.6428074 27.07366018 289.65016237 22.59790361 289.65725482 C12.04003355 289.67355177 1.4821976 289.67842258 -9.07568359 289.67700195 C-19.97465974 289.67580017 -30.87343797 289.69690637 -41.77236402 289.72848928 C-51.12275323 289.75462149 -60.47307768 289.76537053 -69.82350314 289.76409113 C-75.41114733 289.7635806 -80.99861571 289.76931414 -86.5862236 289.79044724 C-91.84099662 289.80977814 -97.09542519 289.80998935 -102.35021019 289.79541397 C-104.27996128 289.79331837 -106.20973364 289.79807127 -108.13944817 289.81013489 C-110.77195184 289.82552734 -113.40325895 289.81631942 -116.03573608 289.8008728 C-116.80120613 289.81115993 -117.56667617 289.82144706 -118.35534227 289.83204591 C-123.28416816 289.76803999 -125.79847359 288.82870793 -129.24755859 285.30639648 C-131.48215804 281.95449731 -131.5044505 280.84797217 -131.52844238 276.93008423 C-131.53986267 275.81410355 -131.55128296 274.69812286 -131.56304932 273.54832458 C-131.56528503 272.32331741 -131.56752075 271.09831024 -131.56982422 269.83618164 C-131.57975403 268.54655014 -131.58968384 267.25691864 -131.59991455 265.9282074 C-131.62614659 262.38890806 -131.63904896 258.84968456 -131.64793587 255.31030321 C-131.65379936 253.09894192 -131.6620093 250.88760133 -131.67094421 248.67625046 C-131.69828865 241.75697508 -131.71762514 234.83774705 -131.725348 227.91842139 C-131.73431147 219.93157235 -131.76941819 211.94540754 -131.82734919 203.95876658 C-131.87057898 197.78456711 -131.89075626 191.6105602 -131.89343023 185.43621099 C-131.89552652 181.74867598 -131.90734253 178.06178438 -131.94306946 174.37440872 C-131.98214971 170.26098337 -131.97345591 166.14899074 -131.96044922 162.03540039 C-131.97887878 160.81444168 -131.99730835 159.59348297 -132.01629639 158.33552551 C-131.93657954 150.30808957 -131.93657954 150.30808957 -129.9695282 147.44840622 C-126.08585962 144.06636675 -122.39262626 143.18005955 -117.40893555 143.19287109 C-115.93775017 143.19298439 -115.93775017 143.19298439 -114.43684387 143.19309998 C-113.38051254 143.19826126 -112.32418121 143.20342255 -111.23583984 143.20874023 C-109.61079781 143.21086266 -109.61079781 143.21086266 -107.95292664 143.21302795 C-104.48860934 143.21863089 -101.02435639 143.23118391 -97.56005859 143.24389648 C-95.21305432 143.24891111 -92.86604903 143.25347408 -90.51904297 143.25756836 C-84.76185951 143.26860128 -79.00471365 143.28534228 -73.24755859 143.30639648 C-73.2667485 142.54297943 -73.28593842 141.77956238 -73.30570984 140.99301147 C-73.48413477 133.78424236 -73.64750479 126.57536105 -73.79414654 119.36588097 C-73.8700558 115.65976793 -73.9516974 111.95396942 -74.04663086 108.24829102 C-74.13810277 104.66937402 -74.21426655 101.09042319 -74.28000832 97.51094437 C-74.30769295 96.14814817 -74.34081064 94.78545073 -74.37955284 93.42292404 C-74.43303871 91.50861907 -74.46509312 89.5937522 -74.49633789 87.67895508 C-74.52076462 86.59085541 -74.54519135 85.50275574 -74.57035828 84.38168335 C-74.19561688 80.81155191 -73.01502692 78.40413976 -71.24755859 75.30639648 C-70.58755859 75.30639648 -69.92755859 75.30639648 -69.24755859 75.30639648 C-69.24755859 74.64639648 -69.24755859 73.98639648 -69.24755859 73.30639648 C-63.55926113 70.87096246 -58.23080073 71.04960101 -52.16162109 71.11108398 C-50.57624039 71.11532883 -50.57624039 71.11532883 -48.95883179 71.11965942 C-45.59662359 71.13081799 -42.23468573 71.1559149 -38.87255859 71.18139648 C-36.5874062 71.19143186 -34.30224962 71.20055674 -32.01708984 71.20874023 C-26.42715449 71.23074317 -20.83737586 71.26417775 -15.24755859 71.30639648 C-15.25644104 70.54520004 -15.26532349 69.7840036 -15.2744751 68.9997406 C-15.3548169 61.8057625 -15.41562175 54.61200372 -15.45480728 47.41769314 C-15.47563074 43.71950996 -15.50385084 40.0216993 -15.54931641 36.32373047 C-15.5929637 32.75105725 -15.61673508 29.178741 -15.62706757 25.60582161 C-15.63442533 24.24670865 -15.64879331 22.88761396 -15.67047882 21.5286541 C-15.87525982 8.15683456 -15.87525982 8.15683456 -11.24755859 2.30639648 C-7.45323474 -0.22315275 -4.39811381 0.0036777 0 0 Z " fill="#EEC231" transform="translate(183.24755859375,15.693603515625)"/>
<path d="M0 0 C0.84096725 -0.00832352 1.68193451 -0.01664703 2.54838562 -0.02522278 C5.33259694 -0.04934772 8.1165741 -0.05809786 10.90087891 -0.06469727 C12.83517529 -0.07366162 14.76947094 -0.08278343 16.70376587 -0.09205627 C20.76069831 -0.10855555 24.81754812 -0.11624811 28.87451172 -0.11914062 C34.07235542 -0.12452573 39.26942243 -0.16220703 44.46704674 -0.20788479 C48.46307204 -0.2376312 52.45890976 -0.24486365 56.45503616 -0.24586678 C58.37120751 -0.2500738 60.28737917 -0.26252742 62.20344162 -0.28338432 C64.88490612 -0.31024922 67.56456327 -0.30548843 70.24609375 -0.29296875 C71.03691849 -0.30780304 71.82774323 -0.32263733 72.64253235 -0.33792114 C76.75870536 -0.28321039 78.51347592 0.10720454 81.72158813 2.78135681 C82.39176971 3.6146199 83.06195129 4.447883 83.75244141 5.30639648 C84.24744141 5.80139648 84.24744141 5.80139648 84.75244141 6.30639648 C84.85363997 7.77678444 84.88534361 9.25201147 84.8894558 10.72587204 C84.89453034 11.68619677 84.89960488 12.64652151 84.9048332 13.63594699 C84.90533095 14.70352528 84.90582871 15.77110357 84.90634155 16.87103271 C84.91291493 18.55761329 84.91291493 18.55761329 84.91962111 20.27826619 C84.93306559 24.07768363 84.9392006 27.87707785 84.9453125 31.67651367 C84.95267872 34.38772872 84.96147212 37.09893884 84.97009277 39.81015015 C84.99464518 47.96999791 85.00924865 56.12985183 85.02215284 64.28972518 C85.02586289 66.59332531 85.02983628 68.89692482 85.03390551 71.20052433 C85.05914154 85.49609719 85.08120145 99.79167097 85.09363365 114.0872612 C85.09656351 117.40054071 85.09952514 120.71382018 85.10253906 124.02709961 C85.10328511 124.85063223 85.10403116 125.67416486 85.10479982 126.52265301 C85.11745593 139.86618737 85.15068049 153.20958854 85.1923409 166.55306062 C85.2347343 180.24321757 85.25832573 193.93330629 85.26355422 207.62352872 C85.26697145 215.31385558 85.27876289 223.00397439 85.31165695 230.69423676 C85.33962322 237.24331142 85.35067205 243.79213542 85.33946149 250.34126517 C85.33426556 253.68389985 85.33993105 257.02558301 85.36192703 260.36821365 C85.38447091 263.99052749 85.37639071 267.61150702 85.36044312 271.23382568 C85.38126625 272.82180879 85.38126625 272.82180879 85.40251005 274.44187236 C85.32499825 281.55929919 85.32499825 281.55929919 82.4019413 285.37343216 C78.47706055 288.23686102 76.57847613 289.5613603 71.73022461 289.44165039 C70.70939285 289.42147858 69.6885611 289.40130676 68.63679504 289.38052368 C67.53671616 289.34832733 66.43663727 289.31613098 65.30322266 289.28295898 C64.17546921 289.25793304 63.04771576 289.2329071 61.88578796 289.2071228 C58.27853648 289.12485421 54.67182684 289.02829001 51.06494141 288.93139648 C48.62160427 288.87316402 46.17824481 288.8158606 43.73486328 288.75952148 C37.74042172 288.6192651 31.74636329 288.46726549 25.75244141 288.30639648 C25.75097485 287.2338754 25.74950829 286.16135431 25.74799728 285.05633259 C25.71142419 258.97574621 25.65200338 232.89528847 25.56853867 206.81480885 C25.5287065 194.20254613 25.49633523 181.5903462 25.48144531 168.97802734 C25.46845046 157.98685525 25.44154125 146.99582104 25.39782834 136.00472659 C25.37516483 130.18344183 25.35953366 124.36232744 25.36055756 118.54099464 C25.36130128 113.06378365 25.34346644 107.58694998 25.31127357 102.10983658 C25.30274244 100.0978702 25.30104632 98.08586166 25.30663872 96.07388496 C25.31325178 93.32951846 25.29542292 90.58636194 25.27142334 87.84211731 C25.27918376 87.04347332 25.28694417 86.24482934 25.29493976 85.42198402 C25.21750507 80.43004806 24.35212358 77.79676487 20.75244141 74.30639648 C17.75998445 72.81016801 14.65917967 73.08811322 11.37353516 73.02514648 C10.64626724 73.00673706 9.91899933 72.98832764 9.16969299 72.96936035 C6.05232651 72.89056515 2.93474258 72.82279606 -0.18286133 72.75415039 C-2.45584181 72.70254017 -4.72862978 72.64525483 -7.00146484 72.58764648 C-7.71186417 72.57407104 -8.42226349 72.56049561 -9.15419006 72.54650879 C-14.13472872 72.41922635 -14.13472872 72.41922635 -15.24755859 71.30639648 C-15.36249717 69.41101224 -15.40722242 67.51133573 -15.42456055 65.61254883 C-15.43739578 64.39393158 -15.45023102 63.17531433 -15.4634552 61.91976929 C-15.47162538 60.57729498 -15.47906858 59.23481608 -15.48583984 57.89233398 C-15.48991537 57.21796925 -15.4939909 56.54360451 -15.49818993 55.84880447 C-15.5190788 52.27461297 -15.5333642 48.70046011 -15.54272461 45.1262207 C-15.55375235 41.44416952 -15.58810071 37.76272886 -15.62789631 34.08089256 C-15.65413408 31.24287852 -15.66242306 28.40500773 -15.66600609 25.56688309 C-15.67321078 23.55340195 -15.69962793 21.54001898 -15.72639465 19.52670288 C-15.71004526 12.61082651 -15.60847773 7.8296033 -11.24755859 2.30639648 C-7.45323474 -0.22315275 -4.39811381 0.0036777 0 0 Z " fill="#D5940E" transform="translate(183.24755859375,15.693603515625)"/>
<path d="M0 0 C0.89859238 -0.00309174 1.79718475 -0.00618347 2.7230072 -0.0093689 C3.69975906 -0.00740509 4.67651093 -0.00544128 5.68286133 -0.00341797 C6.70291763 -0.00491852 7.72297394 -0.00641907 8.77394104 -0.00796509 C12.10429767 -0.01032772 15.43454667 -0.00405782 18.76489258 0.00439453 C19.89165405 0.00661011 21.01841553 0.00882568 22.17932129 0.0111084 C29.97885672 0.02918026 37.77805573 0.07173472 45.57739258 0.12939453 C46.96078827 0.13876038 46.96078827 0.13876038 48.37213135 0.14831543 C53.02158546 0.18253224 57.66950714 0.23836149 62.31802368 0.33892822 C64.28082292 0.37845667 66.2439517 0.40038008 68.20703125 0.421875 C78.84244229 0.7165497 78.84244229 0.7165497 83.57739258 5.12939453 C85.84695109 8.5337323 85.82520753 9.69852169 85.81790161 13.69120789 C85.82065094 14.84807098 85.82340027 16.00493408 85.82623291 17.19685364 C85.81544708 19.10225166 85.81544708 19.10225166 85.80444336 21.04614258 C85.80387926 22.39632153 85.80419579 23.74650109 85.80532837 25.09667969 C85.80590292 28.76379406 85.79413207 32.43077798 85.78018045 36.09786201 C85.76769016 39.92955857 85.76650394 43.76125802 85.76412964 47.5929718 C85.75790986 54.84963248 85.74149232 62.106233 85.72143066 69.36286718 C85.69908714 77.62395611 85.68808213 85.8850479 85.67803979 94.14615953 C85.65712651 111.14060601 85.62194088 128.13499391 85.57739258 145.12939453 C73.66876446 145.35276241 61.75998661 145.55425274 49.85052204 145.72779465 C44.32050811 145.80906476 38.79082947 145.89787592 33.26123047 146.00390625 C27.9251626 146.1059484 22.58912334 146.18820086 17.25252342 146.2567215 C15.21625454 146.28634796 13.18007664 146.32311257 11.14406776 146.36711884 C8.29273423 146.42752986 5.44213294 146.46258142 2.59033203 146.49169922 C1.74804047 146.51543106 0.9057489 146.5391629 0.03793335 146.56361389 C-3.93470358 146.57844433 -5.9146793 146.44662507 -9.36091614 144.29425049 C-12.79028239 140.69328267 -13.67362712 138.62990535 -13.70349121 133.75308228 C-13.7149115 132.63710159 -13.72633179 131.52112091 -13.73809814 130.37132263 C-13.74033386 129.14631546 -13.74256958 127.92130829 -13.74487305 126.65917969 C-13.75480286 125.36954819 -13.76473267 124.07991669 -13.77496338 122.75120544 C-13.80119542 119.21190611 -13.81409779 115.67268261 -13.8229847 112.13330126 C-13.82884819 109.92193997 -13.83705812 107.71059937 -13.84599304 105.4992485 C-13.87333748 98.57997313 -13.89267396 91.6607451 -13.90039682 84.74141943 C-13.9093603 76.75457039 -13.94446702 68.76840559 -14.00239801 60.78176463 C-14.04562781 54.60756516 -14.06580508 48.43355824 -14.06847906 42.25920904 C-14.07057534 38.57167402 -14.08239136 34.88478242 -14.11811829 31.19740677 C-14.15719854 27.08398141 -14.14850474 22.97198879 -14.13549805 18.85839844 C-14.15392761 17.63743973 -14.17235718 16.41648102 -14.19134521 15.15852356 C-14.11162837 7.13108762 -14.11162837 7.13108762 -12.14457703 4.27140427 C-8.41905141 1.02708143 -4.80177992 0.00486618 0 0 Z " fill="#F7DC68" transform="translate(65.422607421875,158.87060546875)"/>
<path d="M0 0 C0.33 0 0.66 0 1 0 C0.99777939 0.88694046 0.99555878 1.77388092 0.99327087 2.68769836 C0.97286741 11.2268734 0.95782845 19.76603975 0.94818783 28.30523396 C0.94306429 32.69072355 0.93617009 37.07619232 0.92456055 41.46166992 C0.88120289 58.26739969 0.8668691 75.05555105 1.45795059 91.85250473 C2.23840036 114.05233044 1.90294421 136.2343053 1.60510254 158.44165039 C1.53292418 163.94085516 1.46901927 169.44015645 1.40429688 174.93945312 C1.2773611 185.62640815 1.14168404 196.31323099 1 207 C0.34 207 -0.32 207 -1 207 C-1.03069149 185.43750604 -1.05099515 163.87501229 -1.0625 142.3125 C-1.0629343 141.52156857 -1.06336861 140.73063715 -1.06381607 139.91573811 C-1.10564992 61.64108296 -1.10564992 61.64108296 -0.5 25.875 C-0.48804218 25.16804111 -0.47608437 24.46108223 -0.46376419 23.73270035 C-0.32835688 15.82139916 -0.17760625 7.91047396 0 0 Z " fill="#C1850E" transform="translate(210,97)"/>
</svg>
