<?xml version="1.0" encoding="UTF-8"?>
<svg version="1.1" xmlns="http://www.w3.org/2000/svg" viewBox="0 0 225 225">
<path d="M0 0 C74.25 0 148.5 0 225 0 C225 74.25 225 148.5 225 225 C150.75 225 76.5 225 0 225 C0 150.75 0 76.5 0 0 Z " fill="#635BFE" transform="translate(0,0)"/>
<path d="M0 0 C0 10.56 0 21.12 0 32 C-5.677148 30.2968556 -11.22978282 28.62454274 -16.796875 26.6484375 C-22.20488879 25.05671713 -27.52268681 24.84381829 -33.125 24.875 C-33.82753906 24.87113281 -34.53007813 24.86726563 -35.25390625 24.86328125 C-38.64247637 24.86968686 -41.76159329 24.94290351 -45 26 C-45.020625 27.258125 -45.04125 28.51625 -45.0625 29.8125 C-45.07410156 30.52019531 -45.08570313 31.22789063 -45.09765625 31.95703125 C-45.08263217 34.20305461 -45.08263217 34.20305461 -44 37 C-41.30280535 38.10716266 -41.30280535 38.10716266 -38 39 C-3.68569232 51.04730585 -3.68569232 51.04730585 4.08984375 65.88671875 C7.94238852 74.83189781 7.07592075 86.25036325 3.75 95.1875 C-0.01463839 104.23889909 -6.46107723 109.9847008 -15.1875 114.1875 C-35.47519167 122.44773562 -58.000524 120.02872273 -78 112 C-79 111 -79 111 -79.11352539 107.94897461 C-79.11336634 106.60008729 -79.10767612 105.25119386 -79.09765625 103.90234375 C-79.0962413 103.19348526 -79.09482635 102.48462677 -79.09336853 101.75428772 C-79.08775443 99.48198288 -79.07519963 97.20977525 -79.0625 94.9375 C-79.05748681 93.40039204 -79.05292359 91.86328255 -79.04882812 90.32617188 C-79.03778042 86.55074358 -79.02050641 82.77538829 -79 79 C-75.77757996 79.74924672 -72.82883143 80.84566421 -69.7734375 82.12060547 C-58.3259167 86.88945564 -45.51139099 90.93053668 -33.109375 87.109375 C-30.84779905 86.18181043 -30.84779905 86.18181043 -30 84 C-29.58297878 81.0842309 -29.58297878 81.0842309 -30 78 C-32.69900379 74.73507606 -35.272633 73.2059604 -39.1875 71.6875 C-40.24066406 71.26597656 -41.29382813 70.84445313 -42.37890625 70.41015625 C-44.27106927 69.67329449 -46.16345447 68.93698375 -48.05810547 68.20654297 C-72.64881468 58.68091393 -72.64881468 58.68091393 -79 46 C-82.81037192 36.42824097 -82.03993309 25.39366557 -78 16 C-74.24141497 7.7494475 -67.69892311 2.10929437 -59.484375 -1.578125 C-41.24222369 -8.33160229 -17.7559228 -8.8779614 0 0 Z " fill="#FDFDFC" transform="translate(150,56)"/>
<path d="M0 0 C0.66 0.33 1.32 0.66 2 1 C1.34 2.65 0.68 4.3 0 6 C0.99 6.33 1.98 6.66 3 7 C4.57446809 26.53191489 4.57446809 26.53191489 2 35 C0.02 35.66 -1.96 36.32 -4 37 C-4.33 36.34 -4.66 35.68 -5 35 C-4.4045886 33.43816708 -3.7466907 31.90003111 -3.0625 30.375 C0.40515399 21.32322734 -0.20408285 11.4176143 -2 2 C-1.34 2 -0.68 2 0 2 C0 1.34 0 0.68 0 0 Z " fill="#645DEB" transform="translate(156,120)"/>
<path d="M0 0 C7.26 0 14.52 0 22 0 C21.67 1.32 21.34 2.64 21 4 C18.4375 5.25 18.4375 5.25 16 6 C16.66 6.66 17.32 7.32 18 8 C13.71 8 9.42 8 5 8 C5 7.34 5 6.68 5 6 C3.35 6 1.7 6 0 6 C0.185625 5.38125 0.37125 4.7625 0.5625 4.125 C1.23686176 1.95839822 1.23686176 1.95839822 0 0 Z " fill="#FBFBF9" transform="translate(96,144)"/>
<path d="M0 0 C0.75410156 0.00451172 1.50820312 0.00902344 2.28515625 0.01367188 C4.14847127 0.02546501 6.01174555 0.04340058 7.875 0.0625 C7.875 0.3925 7.875 0.7225 7.875 1.0625 C3.585 1.0625 -0.705 1.0625 -5.125 1.0625 C-5.125 1.7225 -5.125 2.3825 -5.125 3.0625 C-6.445 3.3925 -7.765 3.7225 -9.125 4.0625 C-8.465 4.3925 -7.805 4.7225 -7.125 5.0625 C-6.795 5.7225 -6.465 6.3825 -6.125 7.0625 C-7.115 7.0625 -8.105 7.0625 -9.125 7.0625 C-9.125 8.3825 -9.125 9.7025 -9.125 11.0625 C-7.38022367 12.63768451 -7.38022367 12.63768451 -5.125 13.8125 C-4.3825 14.24046875 -3.64 14.6684375 -2.875 15.109375 C-2.2975 15.42390625 -1.72 15.7384375 -1.125 16.0625 C-1.785 16.3925 -2.445 16.7225 -3.125 17.0625 C-5 16.390625 -5 16.390625 -7.125 15.3125 C-7.82625 14.96703125 -8.5275 14.6215625 -9.25 14.265625 C-11.125 13.0625 -11.125 13.0625 -13.125 10.0625 C-13.67454205 4.78689634 -13.67454205 4.78689634 -11.75 2.25 C-8.01029341 -0.4828625 -4.45413272 -0.05000322 0 0 Z " fill="#645DE2" transform="translate(117.125,79.9375)"/>
<path d="M0 0 C0.33 0 0.66 0 1 0 C1 10.56 1 21.12 1 32 C-10.25 28.625 -10.25 28.625 -15 27 C-11.1496895 24.43312633 -9.41430237 25.16711276 -5 26 C-5 26.99 -5 27.98 -5 29 C-3.35 29 -1.7 29 0 29 C0 19.43 0 9.86 0 0 Z " fill="#DFDFF7" transform="translate(149,56)"/>
<path d="M0 0 C0 0.66 0 1.32 0 2 C1.98 2 3.96 2 6 2 C6.99 3.98 7.98 5.96 9 8 C3.27789404 6.13236819 -2.37661751 4.14710968 -8 2 C-4.91190305 0.23537317 -3.76687864 0 0 0 Z " fill="#6862E1" transform="translate(128,97)"/>
<path d="M0 0 C2.97 0.495 2.97 0.495 6 1 C6 2.32 6 3.64 6 5 C6.66 5.33 7.32 5.66 8 6 C8 6.66 8 7.32 8 8 C6.39402675 7.54803755 4.79027492 7.08817673 3.1875 6.625 C2.29417969 6.36976562 1.40085937 6.11453125 0.48046875 5.8515625 C-2 5 -2 5 -5 3 C-3.35 2.34 -1.7 1.68 0 1 C0 0.67 0 0.34 0 0 Z " fill="#F2F3F6" transform="translate(106,120)"/>
<path d="M0 0 C2.475 0.99 2.475 0.99 5 2 C5 11.24 5 20.48 5 30 C4.01 29.67 3.02 29.34 2 29 C2.66 29 3.32 29 4 29 C3.67 22.4 3.34 15.8 3 9 C2.67 9 2.34 9 2 9 C2 6.69 2 4.38 2 2 C1.34 2 0.68 2 0 2 C0 1.34 0 0.68 0 0 Z " fill="#F7F7F4" transform="translate(144,54)"/>
<path d="M0 0 C-0.33 0.99 -0.66 1.98 -1 3 C-3.5625 4.1875 -3.5625 4.1875 -6 5 C-5.34 5.66 -4.68 6.32 -4 7 C-8.29 7 -12.58 7 -17 7 C-17 6.67 -17 6.34 -17 6 C-15.63875 5.8453125 -15.63875 5.8453125 -14.25 5.6875 C-10.98038425 4.99585051 -9.46282263 4.17865079 -7 2 C-9.31 1.67 -11.62 1.34 -14 1 C-14 0.67 -14 0.34 -14 0 C-12.41773035 -0.19627391 -10.83410729 -0.38165538 -9.25 -0.5625 C-7.92742187 -0.71912109 -7.92742187 -0.71912109 -6.578125 -0.87890625 C-4.11567549 -0.99456676 -2.33461936 -0.73638695 0 0 Z " fill="#EEEFF1" transform="translate(118,145)"/>
<path d="M0 0 C5.36095277 1.58921525 10.70843973 3.18972938 16 5 C12.90521121 6.03159626 11.47368607 5.97482862 8.3125 5.5625 C7.50425781 5.46066406 6.69601563 5.35882813 5.86328125 5.25390625 C5.24839844 5.17011719 4.63351563 5.08632812 4 5 C4 4.01 4 3.02 4 2 C3.38511719 2.2165625 2.77023438 2.433125 2.13671875 2.65625 C1.32847656 2.9346875 0.52023438 3.213125 -0.3125 3.5 C-1.51326172 3.91765625 -1.51326172 3.91765625 -2.73828125 4.34375 C-5 5 -5 5 -8 5 C-8 4.34 -8 3.68 -8 3 C-5.36 2.34 -2.72 1.68 0 1 C0 0.67 0 0.34 0 0 Z " fill="#645FE8" transform="translate(96,122)"/>
<path d="M0 0 C0.99 0 1.98 0 3 0 C3 11.22 3 22.44 3 34 C0.525 34.495 0.525 34.495 -2 35 C-2 34.34 -2 33.68 -2 33 C-2.66 33 -3.32 33 -4 33 C-3.67 32.34 -3.34 31.68 -3 31 C-0.525 31.99 -0.525 31.99 2 33 C2 22.44 2 11.88 2 1 C1.34 0.67 0.68 0.34 0 0 Z " fill="#6A61DD" transform="translate(148,55)"/>
<path d="M0 0 C3.24992446 -0.05819424 6.49971435 -0.09366116 9.75 -0.125 C10.67039062 -0.14175781 11.59078125 -0.15851562 12.5390625 -0.17578125 C13.42851563 -0.18222656 14.31796875 -0.18867187 15.234375 -0.1953125 C16.05131836 -0.20578613 16.86826172 -0.21625977 17.70996094 -0.22705078 C20.21887518 0.02170084 21.83395625 0.74299871 24 2 C23.67 2.66 23.34 3.32 23 4 C19.37 4 15.74 4 12 4 C12.33 3.34 12.66 2.68 13 2 C8.71 1.67 4.42 1.34 0 1 C0 0.67 0 0.34 0 0 Z " fill="#E9E7FA" transform="translate(108,50)"/>
<path d="M0 0 C0.66 1.32 1.32 2.64 2 4 C0.92878906 4.20496094 -0.14242187 4.40992188 -1.24609375 4.62109375 C-2.64326851 4.89302709 -4.04040181 5.16517352 -5.4375 5.4375 C-6.14455078 5.57220703 -6.85160156 5.70691406 -7.58007812 5.84570312 C-11.08429264 6.28406898 -11.08429264 6.28406898 -14 8 C-16.67058851 8.14115161 -19.32432238 8.04247107 -22 8 C-22 7.67 -22 7.34 -22 7 C-20.37191406 6.61908203 -20.37191406 6.61908203 -18.7109375 6.23046875 C-17.26553276 5.88319618 -15.82022535 5.53551836 -14.375 5.1875 C-13.66214844 5.02185547 -12.94929688 4.85621094 -12.21484375 4.68554688 C-7.80283625 3.61290285 -4.00941682 2.20707645 0 0 Z " fill="#7D77DF" transform="translate(139,167)"/>
<path d="M0 0 C0.33 0.66 0.66 1.32 1 2 C0.22265625 3.7265625 0.22265625 3.7265625 -0.9375 5.625 C-1.618125 6.73875 -2.29875 7.8525 -3 9 C-1.68 9.33 -0.36 9.66 1 10 C-2.07322544 10.91058531 -4.80097361 11.08886184 -8 11 C-8 10.01 -8 9.02 -8 8 C-7.34 8 -6.68 8 -6 8 C-5.67 7.01 -5.34 6.02 -5 5 C-4.34 5 -3.68 5 -3 5 C-2.690625 4.360625 -2.38125 3.72125 -2.0625 3.0625 C-1 1 -1 1 0 0 Z " fill="#6B64E3" transform="translate(150,157)"/>
<path d="M0 0 C1.8253125 0.4640625 1.8253125 0.4640625 3.6875 0.9375 C9.73076221 2.29868206 15.82945928 2.63758803 22 3 C22 3.33 22 3.66 22 4 C19.33326258 4.02727345 16.66681131 4.04696948 14 4.0625 C12.88431641 4.07506836 12.88431641 4.07506836 11.74609375 4.08789062 C6.73851156 4.10966272 1.95720968 3.71541549 -3 3 C-2.01 2.67 -1.02 2.34 0 2 C0 1.34 0 0.68 0 0 Z " fill="#E8EAF8" transform="translate(95,171)"/>
<path d="M0 0 C1.27450447 0.59638333 2.54446877 1.20247416 3.8125 1.8125 C4.52019531 2.14894531 5.22789062 2.48539062 5.95703125 2.83203125 C8.01129035 4.00645471 9.41616278 5.25628016 11 7 C10.67 7.66 10.34 8.32 10 9 C6.66135596 8.42437172 5.30897368 7.40936384 3 5 C2.01 4.67 1.02 4.34 0 4 C-0.33 3.01 -0.66 2.02 -1 1 C-0.67 0.67 -0.34 0.34 0 0 Z " fill="#F2F4F5" transform="translate(134,104)"/>
<path d="M0 0 C2.8203125 0.2421875 2.8203125 0.2421875 6.125 0.875 C7.22070312 1.07867187 8.31640625 1.28234375 9.4453125 1.4921875 C10.28835937 1.65976562 11.13140625 1.82734375 12 2 C12 1.34 12 0.68 12 0 C12.66 0 13.32 0 14 0 C13.67 1.65 13.34 3.3 13 5 C8.05 4.01 3.1 3.02 -2 2 C-1.34 1.34 -0.68 0.68 0 0 Z " fill="#6E68E0" transform="translate(130,49)"/>
<path d="M0 0 C2.85793316 2.85793316 2.40799941 5.14665584 2.625 9.125 C2.69976562 10.40632813 2.77453125 11.68765625 2.8515625 13.0078125 C2.92503906 14.48894531 2.92503906 14.48894531 3 16 C2.34 16 1.68 16 1 16 C-0.50156874 12.99686252 -0.09281204 10.20932478 -0.0625 6.875 C-0.05347656 5.59367187 -0.04445313 4.31234375 -0.03515625 2.9921875 C-0.02355469 2.00476563 -0.01195313 1.01734375 0 0 Z " fill="#EBEEF7" transform="translate(69,82)"/>
<path d="M0 0 C0.66 0.66 1.32 1.32 2 2 C1.21654285 3.17219543 0.42297164 4.33763668 -0.375 5.5 C-0.81585938 6.1496875 -1.25671875 6.799375 -1.7109375 7.46875 C-2.13632813 7.9740625 -2.56171875 8.479375 -3 9 C-3.66 9 -4.32 9 -5 9 C-5.6875 6.6875 -5.6875 6.6875 -6 4 C-4.18682851 1.46155991 -3.01532925 1.00510975 0 0 Z " fill="#EEEEF3" transform="translate(150,153)"/>
<path d="M0 0 C0.74507812 0.00902344 1.49015625 0.01804687 2.2578125 0.02734375 C4.08868059 0.05081642 5.91938238 0.08668475 7.75 0.125 C7.75 0.455 7.75 0.785 7.75 1.125 C3.46 1.125 -0.83 1.125 -5.25 1.125 C-5.25 1.785 -5.25 2.445 -5.25 3.125 C-7.89 3.785 -10.53 4.445 -13.25 5.125 C-12.25 2.125 -12.25 2.125 -10.703125 0.9453125 C-7.15700152 -0.24049312 -3.69162151 -0.08478989 0 0 Z " fill="#706ADB" transform="translate(117.25,79.875)"/>
<path d="M0 0 C0.66 0.66 1.32 1.32 2 2 C1.79014782 4.64736593 1.21245709 5.77786261 -0.62890625 7.703125 C-1.26699219 8.21359375 -1.90507813 8.7240625 -2.5625 9.25 C-3.20316406 9.77078125 -3.84382813 10.2915625 -4.50390625 10.828125 C-4.99761719 11.21484375 -5.49132812 11.6015625 -6 12 C-4.68139111 7.38486888 -2.78644563 3.90102388 0 0 Z " fill="#EDEDF2" transform="translate(77,64)"/>
<path d="M0 0 C5.19488433 0.86581405 8.98406863 2.55777311 13 6 C13 6.66 13 7.32 13 8 C7.73691968 6.58795406 4.2437012 4.31008693 0 1 C0 0.67 0 0.34 0 0 Z " fill="#EBEDF6" transform="translate(80,112)"/>
<path d="M0 0 C1.66611905 -0.042721 3.33382885 -0.04063832 5 0 C6 1 6 1 6.1328125 3.43359375 C6.12894531 4.92052734 6.12894531 4.92052734 6.125 6.4375 C6.12757812 7.42621094 6.13015625 8.41492188 6.1328125 9.43359375 C6 12 6 12 5 14 C4.34 13.67 3.68 13.34 3 13 C3.33 12.34 3.66 11.68 4 11 C4.44143161 7.02711547 4.32030013 5.46043144 2 2.125 C1.34 1.42375 0.68 0.7225 0 0 Z " fill="#F0F0F9" transform="translate(116,129)"/>
<path d="M0 0 C-1.28965176 1.37562854 -2.62689293 2.70766393 -4 4 C-4.66 4 -5.32 4 -6 4 C-6.33 4.99 -6.66 5.98 -7 7 C-7.33 7 -7.66 7 -8 7 C-8 4.69 -8 2.38 -8 0 C-4.71303767 -0.79953138 -3.28976808 -1.09658936 0 0 Z " fill="#6F69E2" transform="translate(83,60)"/>
<path d="M0 0 C2 2 2 2 2.125 5.125 C2.08375 6.07375 2.0425 7.0225 2 8 C0.02 8.99 0.02 8.99 -2 10 C-3 8 -3 8 -2.44140625 6.0546875 C-2.15136719 5.33539063 -1.86132812 4.61609375 -1.5625 3.875 C-1.27503906 3.15054688 -0.98757812 2.42609375 -0.69140625 1.6796875 C-0.46324219 1.12539062 -0.23507813 0.57109375 0 0 Z " fill="#6D67EB" transform="translate(154,147)"/>
<path d="M0 0 C1.43836751 0.11458693 2.87570966 0.24209116 4.3125 0.375 C5.51326172 0.47941406 5.51326172 0.47941406 6.73828125 0.5859375 C9 1 9 1 12 3 C9.03 3.66 6.06 4.32 3 5 C3 3.68 3 2.36 3 1 C2.01 0.67 1.02 0.34 0 0 Z " fill="#6C65E0" transform="translate(125,81)"/>
<path d="M0 0 C1.64826111 2.96687001 2.44271087 5.65626525 3 9 C2.34 9 1.68 9 1 9 C0.34 9.66 -0.32 10.32 -1 11 C-2.60080151 6.99799622 -1.29279692 3.95443764 0 0 Z " fill="#5E57F6" transform="translate(66,93)"/>
<path d="M0 0 C2.475 0.495 2.475 0.495 5 1 C5 2.32 5 3.64 5 5 C5.99 5.33 6.98 5.66 8 6 C7.34 7.32 6.68 8.64 6 10 C4.02 6.7 2.04 3.4 0 0 Z " fill="#6762DC" transform="translate(147,112)"/>
<path d="M0 0 C2.5625 2.1875 2.5625 2.1875 5 5 C4.8125 7.8125 4.8125 7.8125 4 10 C2 8.375 2 8.375 0 6 C-0.25 2.75 -0.25 2.75 0 0 Z " fill="#6D68E3" transform="translate(72,104)"/>
<path d="M0 0 C-0.66 1.32 -1.32 2.64 -2 4 C-3.32 4 -4.64 4 -6 4 C-6.33 4.99 -6.66 5.98 -7 7 C-7.99 7.33 -8.98 7.66 -10 8 C-8.48502075 3.75805811 -4.70198172 0 0 0 Z " fill="#EAE9F7" transform="translate(91,55)"/>
<path d="M0 0 C0 0.66 0 1.32 0 2 C0.99 2.33 1.98 2.66 3 3 C-1.41062136 4.0257259 -3.92630576 4.03684712 -8 2 C-4.91190305 0.23537317 -3.76687864 0 0 0 Z " fill="#6D68E8" transform="translate(128,97)"/>
<path d="M0 0 C0.33 0 0.66 0 1 0 C1.36923077 7.50769231 1.36923077 7.50769231 -0.5 10 C-0.995 10.33 -1.49 10.66 -2 11 C-2.28571429 3.57142857 -2.28571429 3.57142857 0 0 Z " fill="#635EEA" transform="translate(74,61)"/>
<path d="M0 0 C4.95 0.99 4.95 0.99 10 2 C7 4 7 4 4.9375 3.6875 C3 3 3 3 1 2 C0.67 2.66 0.34 3.32 0 4 C0 2.68 0 1.36 0 0 Z " fill="#6B64E2" transform="translate(77,170)"/>
<path d="M0 0 C0.33 0 0.66 0 1 0 C1.25 2.75 1.25 2.75 1 6 C-1 8.375 -1 8.375 -3 10 C-3.66 9.67 -4.32 9.34 -5 9 C-4.67 8.01 -4.34 7.02 -4 6 C-3.01 6 -2.02 6 -1 6 C-0.67 4.02 -0.34 2.04 0 0 Z " fill="#7367DF" transform="translate(120,134)"/>
<path d="M0 0 C3.3 0.99 6.6 1.98 10 3 C6 5 6 5 2.25 4.125 C1.1775 3.75375 0.105 3.3825 -1 3 C-0.67 2.01 -0.34 1.02 0 0 Z " fill="#EFEFF4" transform="translate(78,138)"/>
<path d="M0 0 C-0.33 0.99 -0.66 1.98 -1 3 C-0.34 3.33 0.32 3.66 1 4 C-4.75 3.25 -4.75 3.25 -7 1 C-3.375 -1.125 -3.375 -1.125 0 0 Z " fill="#6D65E8" transform="translate(87,137)"/>
<path d="M0 0 C-0.33 0.99 -0.66 1.98 -1 3 C-3.3125 3.625 -3.3125 3.625 -6 4 C-6.99 3.34 -7.98 2.68 -9 2 C-5.5647952 -0.29013653 -4.014669 -0.17842973 0 0 Z " fill="#6256F1" transform="translate(152,51)"/>
<path d="M0 0 C0 0.66 0 1.32 0 2 C-3.14624993 2.26218749 -4.61837017 2.24754367 -7.3125 0.5 C-7.869375 0.005 -8.42625 -0.49 -9 -1 C-5.22102349 -2.0497157 -3.35080929 -2.10976881 0 0 Z " fill="#6058EC" transform="translate(135,174)"/>
<path d="M0 0 C1.32 0.33 2.64 0.66 4 1 C3.34 2.32 2.68 3.64 2 5 C0.68 4.67 -0.64 4.34 -2 4 C-1.34 2.68 -0.68 1.36 0 0 Z " fill="#F4F5F4" transform="translate(118,98)"/>
</svg>
